<?xml version="1.0" standalone="no"?>
<svg xmlns="http://www.w3.org/2000/svg" viewBox="0 0 127.2 36" width="127.2" height="36"><g fill="#000000" color="#000000" transform="translate(0 3.9999999999999982) scale(0.2800001)"><svg width="100.0" height="100.0" x="0.0" y="0.0" viewBox="0 0 100 100"><path d="M71.169,55.343h-9.361v-9.362c0-3.135-2.565-5.7-5.699-5.7H43.891c-3.134,0-5.699,2.564-5.699,5.7v9.362h-9.361  c-3.137,0-5.701,2.564-5.701,5.7v12.217c0,3.135,2.564,5.7,5.701,5.7h9.361v9.361c0,3.135,2.565,5.7,5.699,5.7h12.218  c3.134,0,5.699-2.564,5.699-5.7v-9.361h9.361c3.137,0,5.701-2.565,5.701-5.7V61.042C76.87,57.907,74.306,55.343,71.169,55.343z"></path><g><path d="M92.785,45.756c-0.497,0-0.996-0.166-1.409-0.507L50,11.066L8.624,45.25c-0.943,0.78-2.338,0.644-3.116-0.297   c-0.779-0.942-0.646-2.338,0.296-3.117L48.591,6.486c0.818-0.676,2-0.676,2.818,0l42.787,35.349   c0.942,0.779,1.075,2.174,0.296,3.117C94.055,45.482,93.422,45.756,92.785,45.756z"></path></g></svg></g><path fill="#000000" fill-rule="nonzero" d="M12.86 18.94L12.86 8.74L9.79 15.22Q9.12 16.51 8.12 16.51Q7.13 16.51 6.46 15.14L6.46 15.14L3.34 8.74L3.34 18.94L0 18.94L0 1.85L3.29 1.85L8.11 11.71L12.91 1.85L16.20 1.85L16.20 18.94L12.86 18.94ZM29.74 12.82L29.74 12.82L21.74 12.82Q21.74 14.69 22.33 15.55Q22.92 16.42 24.70 16.42L24.70 16.42Q25.85 16.42 26.40 15.68Q26.95 14.95 26.95 14.28L26.95 14.28L29.76 14.28Q29.76 16.85 28.38 18.05Q27 19.25 24.73 19.25Q22.46 19.25 21.22 18.60L21.22 18.60Q18.65 17.28 18.65 11.59L18.65 11.59Q18.65 8.21 20.11 6.64Q21.58 5.06 24.58 5.06L24.58 5.06Q29.78 5.06 29.78 10.85L29.78 10.85Q29.78 11.47 29.74 12.82ZM21.82 10.68L21.82 10.68L26.95 10.68Q26.95 9.10 26.35 8.38Q25.75 7.66 24.52 7.66Q23.28 7.66 22.55 8.39Q21.82 9.12 21.82 10.68ZM42.58 0.89L42.58 18.94L40.49 18.94L39.53 17.28L36.19 19.08Q33.41 19.08 32.45 17.06L32.45 17.06Q31.97 16.08 31.79 14.94Q31.61 13.80 31.61 12.56Q31.61 11.33 31.63 10.74Q31.66 10.15 31.75 9.37Q31.85 8.59 32.03 8.06Q32.21 7.54 32.54 6.97Q32.88 6.41 33.36 6.07L33.36 6.07Q34.44 5.33 36.17 5.33L36.17 5.33L39.46 5.33L39.46 0.89L42.58 0.89ZM37.08 15.79L39.46 14.57L39.46 8.14L37.08 8.14Q35.76 8.14 35.24 9.14Q34.73 10.15 34.73 12.16Q34.73 14.16 35.22 14.98Q35.71 15.79 37.08 15.79L37.08 15.79ZM47.66 0Q48.79 0 49.13 0.35Q49.46 0.70 49.46 1.81Q49.46 2.93 49.12 3.28Q48.77 3.62 47.65 3.62Q46.54 3.62 46.19 3.26Q45.84 2.90 45.84 1.80Q45.84 0.70 46.19 0.35Q46.54 0 47.66 0ZM49.20 5.74L49.20 18.94L46.08 18.94L46.08 5.74L49.20 5.74ZM58.49 5.76L58.49 8.14L55.94 8.14L55.94 18.94L52.82 18.94L52.82 8.14L51.53 8.14L51.53 5.76L52.82 5.76L52.82 4.44Q52.82 2.98 53.76 1.92Q54.70 0.86 56.47 0.86L56.47 0.86L58.49 0.86L58.49 3.50L57.02 3.50Q55.94 3.50 55.94 4.63L55.94 4.63L55.94 5.76L58.49 5.76ZM62.47 0Q63.60 0 63.94 0.35Q64.27 0.70 64.27 1.81Q64.27 2.93 63.92 3.28Q63.58 3.62 62.46 3.62Q61.34 3.62 61.00 3.26Q60.65 2.90 60.65 1.80Q60.65 0.70 61.00 0.35Q61.34 0 62.47 0ZM64.01 5.74L64.01 18.94L60.89 18.94L60.89 5.74L64.01 5.74ZM78.12 9.74L78.12 18.94L75 18.94L75 10.18Q75 9 74.52 8.57Q74.04 8.14 73.18 8.14L73.18 8.14L70.37 9.31L70.37 18.94L67.25 18.94L67.25 5.23L69.58 5.23L70.30 6.86L74.14 5.09Q75.74 5.09 76.93 6.28Q78.12 7.46 78.12 9.74L78.12 9.74ZM91.20 0.89L91.20 18.94L89.11 18.94L88.15 17.28L84.82 19.08Q82.03 19.08 81.07 17.06L81.07 17.06Q80.59 16.08 80.41 14.94Q80.23 13.80 80.23 12.56Q80.23 11.33 80.26 10.74Q80.28 10.15 80.38 9.37Q80.47 8.59 80.65 8.06Q80.83 7.54 81.17 6.97Q81.50 6.41 81.98 6.07L81.98 6.07Q83.06 5.33 84.79 5.33L84.79 5.33L88.08 5.33L88.08 0.89L91.20 0.89ZM85.70 15.79L88.08 14.57L88.08 8.14L85.70 8.14Q84.38 8.14 83.87 9.14Q83.35 10.15 83.35 12.16Q83.35 14.16 83.84 14.98Q84.34 15.79 85.70 15.79L85.70 15.79Z" transform="translate(36, 8.532)"></path></svg>