<?xml version="1.0" standalone="no"?>
<svg xmlns="http://www.w3.org/2000/svg" viewBox="0 0 145.104 36" width="145.104" height="36"><g fill="#000da2" color="#000da2" transform="translate(0 3.9999999999999982) scale(0.2800001)"><svg width="100.0" height="100.0" x="0.0" y="0.0" viewBox="0 0 100 100"><path d="M71.169,55.343h-9.361v-9.362c0-3.135-2.565-5.7-5.699-5.7H43.891c-3.134,0-5.699,2.564-5.699,5.7v9.362h-9.361  c-3.137,0-5.701,2.564-5.701,5.7v12.217c0,3.135,2.564,5.7,5.701,5.7h9.361v9.361c0,3.135,2.565,5.7,5.699,5.7h12.218  c3.134,0,5.699-2.564,5.699-5.7v-9.361h9.361c3.137,0,5.701-2.565,5.701-5.7V61.042C76.87,57.907,74.306,55.343,71.169,55.343z"></path><g><path d="M92.785,45.756c-0.497,0-0.996-0.166-1.409-0.507L50,11.066L8.624,45.25c-0.943,0.78-2.338,0.644-3.116-0.297   c-0.779-0.942-0.646-2.338,0.296-3.117L48.591,6.486c0.818-0.676,2-0.676,2.818,0l42.787,35.349   c0.942,0.779,1.075,2.174,0.296,3.117C94.055,45.482,93.422,45.756,92.785,45.756z"></path></g></svg></g><path fill="#0d0357" fill-rule="nonzero" d="M19.78 17.69L14.52 17.69L14.52 11.74Q14.52 10.63 14.60 9.47Q14.69 8.30 14.78 7.51Q14.88 6.72 14.90 6.50L14.90 6.50L14.81 6.50L11.76 17.69L7.61 17.69L4.54 6.53L4.44 6.53Q4.46 6.74 4.57 7.52Q4.68 8.30 4.78 9.47Q4.87 10.63 4.87 11.74L4.87 11.74L4.87 17.69L0 17.69L0 1.18L7.49 1.18L9.98 10.70L10.08 10.70L12.55 1.18L19.78 1.18L19.78 17.69ZM29.21 4.73Q32.69 4.73 34.52 6.36Q36.36 7.99 36.36 11.35L36.36 11.35L36.36 12.17L26.86 12.17Q26.86 13.54 27.47 14.23Q28.08 14.93 29.40 14.93L29.40 14.93Q30.60 14.93 31.16 14.42Q31.73 13.92 31.73 13.08L31.73 13.08L36.36 13.08Q36.36 15.38 34.61 16.68Q32.86 17.98 29.50 17.98L29.50 17.98Q25.97 17.98 24.02 16.33Q22.08 14.69 22.08 11.35L22.08 11.35Q22.08 8.09 23.98 6.41Q25.87 4.73 29.21 4.73L29.21 4.73ZM29.40 7.78Q27.14 7.78 26.88 9.91L26.88 9.91L31.54 9.91Q31.54 8.93 30.97 8.35Q30.41 7.78 29.40 7.78L29.40 7.78ZM51.77 17.69L47.88 17.69L47.47 15.89Q46.08 17.98 43.44 17.98L43.44 17.98Q40.87 17.98 39.48 16.30Q38.09 14.62 38.09 11.33L38.09 11.33Q38.09 8.06 39.48 6.40Q40.87 4.73 43.44 4.73L43.44 4.73Q45.62 4.73 46.99 6.19L46.99 6.19L46.99 0.29L51.77 0.29L51.77 17.69ZM44.93 8.26Q42.86 8.26 42.86 10.73L42.86 10.73L42.86 12Q42.86 14.45 44.93 14.45L44.93 14.45Q45.98 14.45 46.51 13.70Q47.04 12.96 47.04 11.76L47.04 11.76L47.04 10.97Q47.04 9.77 46.51 9.01Q45.98 8.26 44.93 8.26L44.93 8.26ZM59.62 3.53L54.84 3.53L54.84 0.29L59.62 0.29L59.62 3.53ZM59.62 17.69L54.84 17.69L54.84 5.02L59.62 5.02L59.62 17.69ZM67.82 0Q68.35 0 69.14 0.13Q69.94 0.26 70.42 0.43L70.42 0.43L70.42 3.24L69.31 3.24Q68.54 3.24 68.26 3.53Q67.97 3.82 67.97 4.51L67.97 4.51L67.97 5.02L70.42 5.02L70.42 8.26L67.97 8.26L67.97 17.69L63.19 17.69L63.19 8.26L61.42 8.26L61.42 5.02L63.19 5.02L63.19 4.49Q63.19 2.04 64.39 1.02Q65.59 0 67.82 0L67.82 0ZM76.94 3.53L72.17 3.53L72.17 0.29L76.94 0.29L76.94 3.53ZM76.94 17.69L72.17 17.69L72.17 5.02L76.94 5.02L76.94 17.69ZM88.73 4.73Q90.94 4.73 92.04 5.95Q93.14 7.18 93.14 9.48L93.14 9.48L93.14 17.69L88.37 17.69L88.37 10.06Q88.37 9.24 87.95 8.75Q87.53 8.26 86.76 8.26L86.76 8.26Q85.87 8.26 85.32 8.83Q84.77 9.41 84.77 10.25L84.77 10.25L84.77 17.69L79.99 17.69L79.99 5.02L83.90 5.02L84.22 6.94Q84.96 5.93 86.17 5.33Q87.38 4.73 88.73 4.73L88.73 4.73ZM109.10 17.69L105.22 17.69L104.81 15.89Q103.42 17.98 100.78 17.98L100.78 17.98Q98.21 17.98 96.82 16.30Q95.42 14.62 95.42 11.33L95.42 11.33Q95.42 8.06 96.82 6.40Q98.21 4.73 100.78 4.73L100.78 4.73Q102.96 4.73 104.33 6.19L104.33 6.19L104.33 0.29L109.10 0.29L109.10 17.69ZM102.26 8.26Q100.20 8.26 100.20 10.73L100.20 10.73L100.20 12Q100.20 14.45 102.26 14.45L102.26 14.45Q103.32 14.45 103.85 13.70Q104.38 12.96 104.38 11.76L104.38 11.76L104.38 10.97Q104.38 9.77 103.85 9.01Q103.32 8.26 102.26 8.26L102.26 8.26Z" transform="translate(36, 9.156)"></path></svg>